# xmcd
#
# Track frame offsets: 
#        150
#        17277
#        35407
#        52137
#        69521
#        87393
#        108393
#        126049
#        148574
#        163116
#        186832
#        205289
#        221921
#        239932
#
# Disc length: 3422 seconds
#
# Revision: 0
# Processed by: cddbd v1.5.2PL0 Copyright (c) Steve Scherf et al.
# Submitted via: ExactAudioCopy v1.3
#
DISCID=d40d5c0e
DTITLE=Zed Mitchell - Game Is On
DYEAR=2011
DGENRE=Blues Rock
TTITLE0=Money For My Blues
TTITLE1=Cadillac
TTITLE2=Good Night, Baby
TTITLE3=Gonna Keep You Satisfied
TTITLE4=The Lady Lives The Blues
TTITLE5=Don't Lie To Me
TTITLE6=Lonely Just Like Me
TTITLE7=Springtime In Paris
TTITLE8=Game Is On
TTITLE9=I'm A River
TTITLE10=King Of The Blues
TTITLE11=Summer In L.A
TTITLE12=Maybe
TTITLE13=Friends Are Like Diamonds
EXTD=
EXTT0=
EXTT1=
EXTT2=
EXTT3=
EXTT4=
EXTT5=
EXTT6=
EXTT7=
EXTT8=
EXTT9=
EXTT10=
EXTT11=
EXTT12=
EXTT13=
PLAYORDER=
